<svg xmlns="http://www.w3.org/2000/svg" height='24' width='24'>
<defs>
<symbol id="envelope-fill" viewBox="0 0 256 256">
  <path d="M224,48H32a8,8,0,0,0-8,8V192a16,16,0,0,0,16,16H216a16,16,0,0,0,16-16V56A8,8,0,0,0,224,48ZM98.71,128,40,181.81V74.19Zm11.84,10.85,12,11.05a8,8,0,0,0,10.82,0l12-11.05,58,53.15H52.57ZM157.29,128,216,74.18V181.82Z"></path>
</symbol>
<symbol id="github-logo-fill" viewBox="0 0 256 256"><path d="M216,104v8a56.06,56.06,0,0,1-48.44,55.47A39.8,39.8,0,0,1,176,192v40a8,8,0,0,1-8,8H104a8,8,0,0,1-8-8V216H72a40,40,0,0,1-40-40A24,24,0,0,0,8,152a8,8,0,0,1,0-16,40,40,0,0,1,40,40,24,24,0,0,0,24,24H96v-8a39.8,39.8,0,0,1,8.44-24.53A56.06,56.06,0,0,1,56,112v-8a58.14,58.14,0,0,1,7.69-28.32A59.78,59.78,0,0,1,69.07,28,8,8,0,0,1,76,24a59.75,59.75,0,0,1,48,24h24a59.75,59.75,0,0,1,48-24,8,8,0,0,1,6.93,4,59.74,59.74,0,0,1,5.37,47.68A58,58,0,0,1,216,104Z"></path></symbol>
<symbol id="house-simple-fill" viewBox="0 0 256 256"><path d="M224,115.55V208a16,16,0,0,1-16,16H48a16,16,0,0,1-16-16V115.55a16,16,0,0,1,5.17-11.78l80-75.48.11-.11a16,16,0,0,1,21.53,0,1.14,1.14,0,0,0,.11.11l80,75.48A16,16,0,0,1,224,115.55Z"></path></symbol>
<symbol id="lightbulb-fill" viewBox="0 0 256 256"><path d="M176,232a8,8,0,0,1-8,8H88a8,8,0,0,1,0-16h80A8,8,0,0,1,176,232Zm40-128a87.55,87.55,0,0,1-33.64,69.21A16.24,16.24,0,0,0,176,186v6a16,16,0,0,1-16,16H96a16,16,0,0,1-16-16v-6a16,16,0,0,0-6.23-12.66A87.59,87.59,0,0,1,40,104.49C39.74,56.83,78.26,17.14,125.88,16A88,88,0,0,1,216,104Zm-32.11-9.34a57.6,57.6,0,0,0-46.56-46.55,8,8,0,0,0-2.66,15.78c16.57,2.79,30.63,16.85,33.44,33.45A8,8,0,0,0,176,104a9,9,0,0,0,1.35-.11A8,8,0,0,0,183.89,94.66Z"></path></symbol>
<symbol id="linkedin-logo-fill" viewBox="0 0 256 256"><path d="M216,24H40A16,16,0,0,0,24,40V216a16,16,0,0,0,16,16H216a16,16,0,0,0,16-16V40A16,16,0,0,0,216,24ZM96,176a8,8,0,0,1-16,0V112a8,8,0,0,1,16,0ZM88,96a12,12,0,1,1,12-12A12,12,0,0,1,88,96Zm96,80a8,8,0,0,1-16,0V140a20,20,0,0,0-40,0v36a8,8,0,0,1-16,0V112a8,8,0,0,1,15.79-1.78A36,36,0,0,1,184,140Z"></path></symbol>
<symbol id="mouse-simple-fill" viewBox="0 0 256 256"><path d="M144,16H112A64.07,64.07,0,0,0,48,80v96a64.07,64.07,0,0,0,64,64h32a64.07,64.07,0,0,0,64-64V80A64.07,64.07,0,0,0,144,16Zm-8,96a8,8,0,0,1-16,0V64a8,8,0,0,1,16,0Z"></path></symbol>
<symbol id="paper-plane-tilt-fill" viewBox="0 0 256 256"><path d="M231.4,44.34s0,.1,0,.15l-58.2,191.94a15.88,15.88,0,0,1-14,11.51q-.69.06-1.38.06a15.86,15.86,0,0,1-14.42-9.15l-35.71-75.39a4,4,0,0,1,.79-4.54l57.26-57.27a8,8,0,0,0-11.31-11.31L97.08,147.6a4,4,0,0,1-4.54.79l-75-35.53A16.37,16.37,0,0,1,8,97.36,15.89,15.89,0,0,1,19.57,82.84l191.94-58.2.15,0A16,16,0,0,1,231.4,44.34Z"></path></symbol>
<symbol id="phone-fill" viewBox="0 0 256 256"><path d="M231.88,175.08A56.26,56.26,0,0,1,176,224C96.6,224,32,159.4,32,80A56.26,56.26,0,0,1,80.92,24.12a16,16,0,0,1,16.62,9.52l21.12,47.15,0,.12A16,16,0,0,1,117.39,96c-.18.27-.37.52-.57.77L96,121.45c7.49,15.22,23.41,31,38.83,38.51l24.34-20.71a8.12,8.12,0,0,1,.75-.56,16,16,0,0,1,15.17-1.4l.13.06,47.11,21.11A16,16,0,0,1,231.88,175.08Z"></path></symbol>
<symbol id="read-cv-logo-fill" viewBox="0 0 256 256"><path d="M210.78,39.25l-130.25-23A16,16,0,0,0,62,29.23l-29.75,169a16,16,0,0,0,13,18.53l130.25,23a16,16,0,0,0,18.54-13l29.75-169A16,16,0,0,0,210.78,39.25ZM135.5,131.56a8,8,0,0,1-7.87,6.61,8.27,8.27,0,0,1-1.4-.12l-41.5-7.33A8,8,0,0,1,87.52,115L129,122.29A8,8,0,0,1,135.5,131.56Zm47-24.18a8,8,0,0,1-7.86,6.61,7.55,7.55,0,0,1-1.41-.13l-83-14.65a8,8,0,0,1,2.79-15.76l83,14.66A8,8,0,0,1,182.53,107.38Zm5.55-31.52a8,8,0,0,1-7.87,6.61,8.36,8.36,0,0,1-1.4-.12l-83-14.66a8,8,0,1,1,2.78-15.75l83,14.65A8,8,0,0,1,188.08,75.86Z"></path></symbol>
<symbol id="user-fill" viewBox="0 0 256 256"><path d="M230.93,220a8,8,0,0,1-6.93,4H32a8,8,0,0,1-6.92-12c15.23-26.33,38.7-45.21,66.09-54.16a72,72,0,1,1,73.66,0c27.39,8.95,50.86,27.83,66.09,54.16A8,8,0,0,1,230.93,220Z"></path></symbol>

</defs>
</svg>